<svg xmlns="http://www.w3.org/2000/svg" width="1921.841" height="541.044" viewBox="0 0 1921.841 541.044">
  <g id="Group_1" data-name="Group 1" transform="translate(0.875 -540)">
    <path id="Path_1" data-name="Path 1" d="M-.875,680.547S632.34,665.275,974.762,789.713s946.2-101.381,946.2-101.381V881.994L-.875,881.505Z" transform="translate(0 199.051)" fill="#fff"/>
    <path id="Path_2" data-name="Path 2" d="M756.195,429.673s-42.145,90.472-87.348,118.862,59.246-7.174,59.246-7.174-34.7,74.615-90.285,106.6,69.709-9.995,69.709-9.995S652.88,722.422,609.666,747.24s129.691-19.078,129.691-19.078V787.5H770.3v-59.34s196.354,36.267,119.381,4.6-88-94.791-88-94.791,125.677,21.452,59.448-4.212-76.492-83.957-76.954-92.394,106.319,20.106,49.86-5.656S756.195,429.673,756.195,429.673Z" transform="translate(-602.732 110.327)" fill="#fff"/>
    <path id="Path_3" data-name="Path 3" d="M702.535,429.673s-27.408,66.84-56.806,87.814,38.53-5.3,38.53-5.3-22.565,55.125-58.716,78.756,45.334-7.384,45.334-7.384-35.532,62.395-63.636,80.73,84.343-14.095,84.343-14.095v43.84h20.122v-43.84s127.7,26.794,77.638,3.4-57.232-70.031-57.232-70.031,81.733,15.849,38.661-3.112-49.745-62.027-50.046-68.26,69.143,14.854,32.426-4.178S702.535,429.673,702.535,429.673Z" transform="translate(-348.732 203.795)" fill="#fff"/>
    <path id="Path_4" data-name="Path 4" d="M675.184,429.673s-19.9,48.523-41.238,63.749,27.971-3.848,27.971-3.848-16.381,40.018-42.625,57.173,32.911-5.36,32.911-5.36-25.795,45.3-46.2,58.606,61.229-10.232,61.229-10.232v31.826h14.607V589.762s92.7,19.451,56.362,2.465-41.548-50.839-41.548-50.839,59.334,11.505,28.066-2.259-36.113-45.029-36.331-49.554,50.195,10.784,23.54-3.033S675.184,429.673,675.184,429.673Z" transform="translate(-150.487 288.242)" fill="#fff"/>
    <path id="Path_5" data-name="Path 5" d="M657.159,429.673s-14.947,36.451-30.979,47.889,21.012-2.89,21.012-2.89-12.306,30.062-32.02,42.95,24.723-4.027,24.723-4.027-19.378,34.027-34.7,44.026,46-7.686,46-7.686v23.908h10.973V549.934s69.639,14.612,42.34,1.852-31.211-38.191-31.211-38.191,44.573,8.643,21.084-1.7-27.129-33.826-27.292-37.226,37.707,8.1,17.684-2.279S657.159,429.673,657.159,429.673Z" transform="translate(-66.487 344.987)" fill="#fff"/>
    <path id="Path_6" data-name="Path 6" d="M657.159,429.673s-14.947,36.451-30.979,47.889,21.012-2.89,21.012-2.89-12.306,30.062-32.02,42.95,24.723-4.027,24.723-4.027-19.378,34.027-34.7,44.026,46-7.686,46-7.686v23.908h10.973V549.934s69.639,14.612,42.34,1.852-31.211-38.191-31.211-38.191,44.573,8.643,21.084-1.7-27.129-33.826-27.292-37.226,37.707,8.1,17.684-2.279S657.159,429.673,657.159,429.673Z" transform="translate(-204.543 323.987)" fill="#fff"/>
    <path id="Path_7" data-name="Path 7" d="M657.159,429.673s-14.947,36.451-30.979,47.889,21.012-2.89,21.012-2.89-12.306,30.062-32.02,42.95,24.723-4.027,24.723-4.027-19.378,34.027-34.7,44.026,46-7.686,46-7.686v23.908h10.973V549.934s69.639,14.612,42.34,1.852-31.211-38.191-31.211-38.191,44.573,8.643,21.084-1.7-27.129-33.826-27.292-37.226,37.707,8.1,17.684-2.279S657.159,429.673,657.159,429.673Z" transform="translate(-66.487 344.987)" fill="#fff"/>
    <path id="Path_8" data-name="Path 8" d="M756.195,429.673s-42.145,90.472-87.348,118.862,59.246-7.174,59.246-7.174-34.7,74.615-90.285,106.6,69.709-9.995,69.709-9.995S652.88,722.422,609.666,747.24s129.691-19.078,129.691-19.078V787.5H770.3v-59.34s196.354,36.267,119.381,4.6-88-94.791-88-94.791,125.677,21.452,59.448-4.212-76.492-83.957-76.954-92.394,106.319,20.106,49.86-5.656S756.195,429.673,756.195,429.673Z" transform="translate(1012.434 185.327)" fill="#fff"/>
    <path id="Path_9" data-name="Path 9" d="M670.457,429.673s-18.6,39.926-38.548,52.455,26.146-3.166,26.146-3.166-15.312,32.929-39.844,47.044,30.763-4.411,30.763-4.411-24.112,37.271-43.183,48.223,57.234-8.419,57.234-8.419v26.188h13.654V561.4s86.654,16.005,52.684,2.029S690.528,521.6,690.528,521.6s55.463,9.467,26.235-1.859-33.757-37.051-33.961-40.775,46.92,8.873,22-2.5S670.457,429.673,670.457,429.673Z" transform="translate(910.741 410.199)" fill="#fff"/>
  </g>
</svg>
